<?xml version="1.0" standalone="no"?>
<!DOCTYPE svg PUBLIC "-//W3C//DTD SVG 20010904//EN"
 "http://www.w3.org/TR/2001/REC-SVG-20010904/DTD/svg10.dtd">
<svg version="1.0" xmlns="http://www.w3.org/2000/svg"
 width="700.000000pt" height="700.000000pt" viewBox="0 0 700.000000 700.000000"
 preserveAspectRatio="xMidYMid meet">
<metadata>
Created by potrace 1.11, written by Peter Selinger 2001-2013
</metadata>
<g transform="translate(0.000000,700.000000) scale(0.100000,-0.100000)"
fill="#000000" stroke="none">
<path d="M2197 5696 c-713 -255 -1299 -465 -1300 -467 -3 -4 392 -3442 396
-3445 1 -1 499 -277 1106 -613 l1103 -611 1097 606 c603 334 1100 610 1104
614 11 10 407 3443 399 3451 -7 7 -2564 919 -2592 925 -8 2 -599 -205 -1313
-460z m1387 -180 c223 -75 896 -406 1286 -633 170 -98 240 -148 240 -168 0
-76 -1330 -711 -1592 -760 -47 -9 -114 11 -293 85 -449 187 -1159 553 -1279
661 -27 24 -29 28 -16 44 23 27 104 85 215 152 379 228 1248 641 1353 643 8 0
46 -11 86 -24z m1617 -1017 c32 -155 53 -946 39 -1463 -12 -420 -18 -482 -54
-513 -126 -108 -1207 -660 -1506 -767 -96 -35 -116 -34 -124 5 -38 193 -31
1783 10 1972 10 47 166 140 614 366 502 254 947 447 1005 436 5 -1 13 -17 16
-36z m-3202 -22 c234 -92 1119 -547 1296 -665 61 -41 71 -52 78 -87 13 -62 20
-1676 9 -1843 -6 -79 -13 -146 -15 -149 -12 -11 -185 53 -407 150 -475 207
-1033 500 -1109 581 l-24 26 -9 392 c-9 367 5 1490 19 1606 5 41 7 43 32 37
14 -3 73 -25 130 -48z"/>
</g>
</svg>
